<svg width="17" height="17" viewBox="0 0 17 17" fill="none" xmlns="http://www.w3.org/2000/svg">
<path d="M3.47559 13.3333C3.81878 12.3623 4.74482 11.6667 5.83333 11.6667C6.92183 11.6667 7.84792 12.3623 8.19108 13.3333H16.6667V15H8.19108C7.84792 15.971 6.92183 16.6667 5.83333 16.6667C4.74482 16.6667 3.81878 15.971 3.47559 15H0V13.3333H3.47559ZM8.47558 7.5C8.81875 6.52901 9.74483 5.83333 10.8333 5.83333C11.9218 5.83333 12.8479 6.52901 13.1911 7.5H16.6667V9.16667H13.1911C12.8479 10.1377 11.9218 10.8333 10.8333 10.8333C9.74483 10.8333 8.81875 10.1377 8.47558 9.16667H0V7.5H8.47558ZM3.47559 1.66667C3.81878 0.695675 4.74482 0 5.83333 0C6.92183 0 7.84792 0.695675 8.19108 1.66667H16.6667V3.33333H8.19108C7.84792 4.30433 6.92183 5 5.83333 5C4.74482 5 3.81878 4.30433 3.47559 3.33333H0V1.66667H3.47559ZM5.83333 3.33333C6.29357 3.33333 6.66667 2.96023 6.66667 2.5C6.66667 2.03977 6.29357 1.66667 5.83333 1.66667C5.3731 1.66667 5 2.03977 5 2.5C5 2.96023 5.3731 3.33333 5.83333 3.33333ZM10.8333 9.16667C11.2936 9.16667 11.6667 8.79358 11.6667 8.33333C11.6667 7.87308 11.2936 7.5 10.8333 7.5C10.3731 7.5 10 7.87308 10 8.33333C10 8.79358 10.3731 9.16667 10.8333 9.16667ZM5.83333 15C6.29357 15 6.66667 14.6269 6.66667 14.1667C6.66667 13.7064 6.29357 13.3333 5.83333 13.3333C5.3731 13.3333 5 13.7064 5 14.1667C5 14.6269 5.3731 15 5.83333 15Z" fill="#0954EB"/>
</svg>
