<svg width="90" height="42" viewBox="0 0 90 42" fill="none" xmlns="http://www.w3.org/2000/svg">
<path d="M13.932 16.6871V17.6809H13.6883C13.2008 17.6809 12.7945 17.7246 12.4695 17.8121C12.157 17.8996 12.0008 18.0809 12.0008 18.3559V28.8746H14.8695C15.407 28.8746 15.8445 28.8559 16.182 28.8184C16.5195 28.7684 16.7695 28.6871 16.932 28.5746C17.0945 28.4496 17.1883 28.2746 17.2133 28.0496L17.4195 25.7059H18.6008V29.9996H8.45703V29.0059H8.66328C9.12578 29.0059 9.50703 28.9621 9.80703 28.8746C10.107 28.7871 10.257 28.6059 10.257 28.3309V18.3559C10.257 18.0809 10.107 17.8996 9.80703 17.8121C9.50703 17.7246 9.12578 17.6809 8.66328 17.6809H8.45703V16.6871H13.932Z" fill="#0954EB"/>
<path d="M23.1607 16.6738C22.8107 16.6738 23.3857 16.8738 23.1607 16.6738C22.9357 16.4613 23.1258 17.2496 23.1258 16.8746C23.1258 16.4871 22.9008 16.4496 23.1258 16.2496C22.7758 16.2496 23.3508 16.0496 23.1258 16.2496C22.9008 16.0496 23.4758 16.2496 23.1258 16.2496C23.3508 16.4496 23.1607 16.2863 23.1607 16.6738C23.1607 17.0488 23.315 16.5328 23.09 16.7453C22.865 16.9453 23.5107 16.6738 23.1607 16.6738ZM23.5263 20.0246V28.1996C23.5263 28.5621 23.6701 28.8059 23.9576 28.9309C24.2451 29.0559 24.6326 29.1184 25.1201 29.1184H25.1576V29.9996H20.2451V29.1184H20.2826C20.7701 29.1184 21.1576 29.0559 21.4451 28.9309C21.7326 28.8059 21.8763 28.5621 21.8763 28.1996V21.8621C21.8763 21.5871 21.7576 21.4059 21.5201 21.3184C21.2826 21.2184 20.9201 21.1184 20.4326 21.0184L20.2263 20.9809V20.0246H23.5263Z" fill="#0954EB"/>
<path d="M26.4707 20.0246H33.1082V21.1309H26.4707V20.0246ZM33.8957 15.7871V17.0246C33.7082 16.9621 33.4644 16.9059 33.1644 16.8559C32.8644 16.7934 32.5269 16.7621 32.1519 16.7621C31.7519 16.7621 31.4019 16.8246 31.1019 16.9496C30.8144 17.0621 30.5894 17.2746 30.4269 17.5871C30.2644 17.8996 30.1832 18.3434 30.1832 18.9184V28.9309C30.1832 28.9684 30.2707 29.0059 30.4457 29.0434C30.6207 29.0684 30.8394 29.0871 31.1019 29.0996C31.3769 29.1121 31.6519 29.1184 31.9269 29.1184H32.3582V29.9996H26.5269V29.1184H26.8457C27.3707 29.1184 27.7769 29.0559 28.0644 28.9309C28.3644 28.7934 28.5144 28.5246 28.5144 28.1246V18.8434C28.5144 17.9934 28.6832 17.3371 29.0207 16.8746C29.3707 16.4121 29.8207 16.0871 30.3707 15.8996C30.9332 15.6996 31.5269 15.5996 32.1519 15.5996C32.5019 15.5996 32.8394 15.6184 33.1644 15.6559C33.5019 15.6934 33.7457 15.7371 33.8957 15.7871Z" fill="#0954EB"/>
<path d="M36.1259 25.1059C36.1259 25.8059 36.2071 26.4121 36.3696 26.9246C36.5446 27.4371 36.7821 27.8496 37.0821 28.1621C37.3946 28.4746 37.7509 28.7059 38.1509 28.8559C38.5634 29.0059 39.0071 29.0809 39.4821 29.0809C40.0071 29.0809 40.4571 28.9871 40.8321 28.7996C41.2196 28.6121 41.5509 28.3746 41.8259 28.0871C42.1134 27.7996 42.3509 27.4934 42.5384 27.1684L43.4384 27.9184C43.2009 28.3559 42.8884 28.7496 42.5009 29.0996C42.1259 29.4496 41.6821 29.7246 41.1696 29.9246C40.6571 30.1121 40.0821 30.2059 39.4446 30.2059C38.4946 30.2059 37.6384 30.0059 36.8759 29.6059C36.1259 29.2059 35.5321 28.6246 35.0946 27.8621C34.6571 27.0871 34.4384 26.1621 34.4384 25.0871C34.4384 24.0371 34.6384 23.1246 35.0384 22.3496C35.4384 21.5621 35.9884 20.9496 36.6884 20.5121C37.4009 20.0621 38.2071 19.8371 39.1071 19.8371C39.8321 19.8371 40.4634 19.9559 41.0009 20.1934C41.5384 20.4309 41.9821 20.7871 42.3321 21.2621C42.6946 21.7246 42.9696 22.3121 43.1571 23.0246C43.3446 23.7246 43.4446 24.5434 43.4571 25.4809H35.7509V24.3934H42.2009L41.7134 24.8059C41.6884 24.1184 41.6196 23.5309 41.5071 23.0434C41.4071 22.5434 41.2509 22.1434 41.0384 21.8434C40.8384 21.5434 40.5759 21.3246 40.2509 21.1871C39.9384 21.0371 39.5571 20.9621 39.1071 20.9621C38.6696 20.9621 38.2696 21.0496 37.9071 21.2246C37.5446 21.3996 37.2321 21.6621 36.9696 22.0121C36.7071 22.3496 36.5009 22.7809 36.3509 23.3059C36.2009 23.8184 36.1259 24.4184 36.1259 25.1059Z" fill="#0954EB"/>
<path d="M51.2809 23.9809L52.9309 23.6059L55.5934 28.2184C55.7309 28.4309 55.8746 28.5996 56.0246 28.7246C56.1746 28.8371 56.3434 28.9121 56.5309 28.9496C56.7309 28.9871 56.9496 29.0059 57.1871 29.0059H57.3746V29.9996H54.5621L51.2809 23.9809ZM48.7684 28.8184C48.7684 28.8559 48.8121 28.8871 48.8996 28.9121C48.9996 28.9246 49.1246 28.9434 49.2746 28.9684C49.4246 28.9809 49.5934 28.9934 49.7809 29.0059C49.9684 29.0059 50.1559 29.0059 50.3434 29.0059H50.6434V29.9996H45.2246V29.0059H45.4309C45.8934 29.0059 46.2746 28.9621 46.5746 28.8746C46.8746 28.7871 47.0246 28.6059 47.0246 28.3309V18.3559C47.0246 18.0809 46.8746 17.8996 46.5746 17.8121C46.2746 17.7246 45.8934 17.6809 45.4309 17.6809H45.2246V16.6871H51.0371C52.0246 16.6871 52.8684 16.8371 53.5684 17.1371C54.2684 17.4371 54.8059 17.8684 55.1809 18.4309C55.5559 18.9809 55.7434 19.6434 55.7434 20.4184C55.7434 21.0434 55.6059 21.6059 55.3309 22.1059C55.0684 22.5934 54.6871 23.0121 54.1871 23.3621C53.6996 23.6996 53.1121 23.9496 52.4246 24.1121C52.2996 24.1496 52.1684 24.1934 52.0309 24.2434C51.9059 24.2809 51.7746 24.3121 51.6371 24.3371C51.4996 24.3496 51.3621 24.3559 51.2246 24.3559H48.4684V23.2871H50.9059C51.5934 23.2871 52.1559 23.1746 52.5934 22.9496C53.0309 22.7246 53.3559 22.4059 53.5684 21.9934C53.7809 21.5684 53.8871 21.0684 53.8871 20.4934C53.8871 19.9184 53.7809 19.4371 53.5684 19.0496C53.3559 18.6496 53.0309 18.3434 52.5934 18.1309C52.1684 17.9184 51.6371 17.8121 50.9996 17.8121H48.7684V28.8184Z" fill="#0954EB"/>
<path d="M65.2279 23.9246V24.9184C64.4904 25.0184 63.8529 25.1309 63.3154 25.2559C62.7779 25.3684 62.3279 25.4996 61.9654 25.6496C61.6029 25.7996 61.3154 25.9684 61.1029 26.1559C60.8904 26.3309 60.7342 26.5371 60.6342 26.7746C60.5467 27.0121 60.5029 27.2746 60.5029 27.5621C60.5029 27.8996 60.5717 28.1871 60.7092 28.4246C60.8467 28.6496 61.0467 28.8246 61.3092 28.9496C61.5717 29.0621 61.8779 29.1184 62.2279 29.1184C62.6279 29.1184 62.9967 29.0246 63.3342 28.8371C63.6717 28.6496 63.9904 28.3684 64.2904 27.9934C64.6029 27.6059 64.9029 27.1371 65.1904 26.5871L65.2092 27.7309C64.9717 28.2434 64.6842 28.6871 64.3467 29.0621C64.0217 29.4246 63.6529 29.7059 63.2404 29.9059C62.8279 30.1059 62.3592 30.2059 61.8342 30.2059C61.2342 30.2059 60.7029 30.1059 60.2404 29.9059C59.7904 29.6934 59.4342 29.3934 59.1717 29.0059C58.9092 28.6059 58.7779 28.1246 58.7779 27.5621C58.7779 27.0496 58.8967 26.5996 59.1342 26.2121C59.3842 25.8246 59.7654 25.4871 60.2779 25.1996C60.7904 24.9121 61.4529 24.6684 62.2654 24.4684C63.0904 24.2559 64.0779 24.0746 65.2279 23.9246ZM65.1529 29.9996L64.9654 27.8621L64.8529 27.7496V22.9121C64.8529 22.4371 64.7842 22.0559 64.6467 21.7684C64.5217 21.4809 64.3154 21.2746 64.0279 21.1496C63.7404 21.0246 63.3529 20.9621 62.8654 20.9621C62.1404 20.9621 61.5467 21.0684 61.0842 21.2809C60.6217 21.4934 60.2717 21.7309 60.0342 21.9934C60.0342 21.8809 60.0529 21.7684 60.0904 21.6559C60.1404 21.5434 60.2092 21.4434 60.2967 21.3559C60.3842 21.2684 60.4842 21.1934 60.5967 21.1309C60.7217 21.0559 60.8592 21.0059 61.0092 20.9809V23.0996H59.3404V20.8871C59.5279 20.7371 59.7842 20.5871 60.1092 20.4371C60.4467 20.2746 60.8529 20.1371 61.3279 20.0246C61.8029 19.8996 62.3404 19.8371 62.9404 19.8371C63.4404 19.8371 63.9029 19.8871 64.3279 19.9871C64.7529 20.0871 65.1279 20.2496 65.4529 20.4746C65.7904 20.6996 66.0467 20.9934 66.2217 21.3559C66.4092 21.7184 66.5029 22.1684 66.5029 22.7059V28.2934C66.5029 28.4684 66.5654 28.6059 66.6904 28.7059C66.8279 28.8059 67.0092 28.8809 67.2342 28.9309C67.4592 28.9684 67.7342 29.0059 68.0592 29.0434L68.1342 29.0621V29.9996H65.1529Z" fill="#0954EB"/>
<path d="M71.5874 17.9621C71.2374 17.9621 70.9499 17.8621 70.7249 17.6621C70.4999 17.4496 70.3874 17.1559 70.3874 16.7809C70.3874 16.3934 70.4999 16.0996 70.7249 15.8996C70.9499 15.6996 71.2374 15.5996 71.5874 15.5996C71.9374 15.5996 72.2249 15.6996 72.4499 15.8996C72.6749 16.0996 72.7874 16.3934 72.7874 16.7809C72.7874 17.1559 72.6749 17.4496 72.4499 17.6621C72.2249 17.8621 71.9374 17.9621 71.5874 17.9621ZM72.5436 20.0246V28.1996C72.5436 28.5621 72.6874 28.8059 72.9749 28.9309C73.2624 29.0559 73.6499 29.1184 74.1374 29.1184H74.1749V29.9996H69.2624V29.1184H69.2999C69.7874 29.1184 70.1749 29.0559 70.4624 28.9309C70.7499 28.8059 70.8937 28.5621 70.8937 28.1996V21.8621C70.8937 21.5871 70.7749 21.4059 70.5374 21.3184C70.2999 21.2184 69.9374 21.1184 69.4499 21.0184L69.2436 20.9809V20.0246H72.5436Z" fill="#0954EB"/>
<path d="M78.788 15.8621V28.1996C78.788 28.5621 78.9255 28.8059 79.2005 28.9309C79.488 29.0559 79.8755 29.1184 80.363 29.1184H80.4192V29.9996H75.488V29.1184H75.563C76.038 29.1184 76.4192 29.0559 76.7067 28.9309C76.9942 28.8059 77.138 28.5621 77.138 28.1996V17.6996C77.138 17.5121 77.0817 17.3746 76.9692 17.2871C76.8692 17.1871 76.713 17.1059 76.5005 17.0434C76.288 16.9809 76.013 16.9184 75.6755 16.8559L75.488 16.8184V15.8621H78.788Z" fill="#0954EB"/>
<path d="M5 31.875C37.7427 38.3103 55.2508 38.2725 85 31.875" stroke="#0954EB" stroke-linecap="round"/>
<mask id="mask0_2090_36269" style="mask-type:alpha" maskUnits="userSpaceOnUse" x="15" y="5" width="14" height="14">
<rect x="15" y="5" width="13.75" height="13.75" fill="#D9D9D9"/>
</mask>
<g mask="url(#mask0_2090_36269)">
<path d="M21.8737 17.6038C21.1766 17.5179 20.4844 17.3293 19.7969 17.0381C19.1094 16.7469 18.4959 16.3291 17.9564 15.7848C17.4169 15.2406 16.98 14.5531 16.6458 13.7223C16.3116 12.8916 16.1445 11.8938 16.1445 10.7288V10.1559H16.7174C17.2044 10.1559 17.7057 10.218 18.2214 10.3421C18.737 10.4663 19.2192 10.6525 19.668 10.9007C19.7826 10.0795 20.0428 9.23687 20.4486 8.37272C20.8544 7.50857 21.3294 6.76617 21.8737 6.14551C22.418 6.76617 22.893 7.50857 23.2988 8.37272C23.7046 9.23687 23.9648 10.0795 24.0794 10.9007C24.5282 10.6525 25.0104 10.4663 25.526 10.3421C26.0417 10.218 26.543 10.1559 27.0299 10.1559H27.6029V10.7288C27.6029 11.8938 27.4358 12.8916 27.1016 13.7223C26.7674 14.5531 26.3305 15.2406 25.791 15.7848C25.2515 16.3291 24.6404 16.7469 23.9577 17.0381C23.275 17.3293 22.5803 17.5179 21.8737 17.6038ZM21.8451 16.4294C21.74 14.8443 21.2697 13.6459 20.4342 12.8343C19.5987 12.0227 18.5603 11.5214 17.319 11.3304C17.424 12.9632 17.9086 14.1807 18.7728 14.9827C19.6369 15.7848 20.661 16.267 21.8451 16.4294ZM21.8737 12.7913C22.0169 12.5813 22.1912 12.364 22.3965 12.1396C22.6018 11.9153 22.7999 11.7219 22.9909 11.5596C22.9718 11.0153 22.8644 10.4472 22.6686 9.85514C22.4729 9.26313 22.2079 8.68544 21.8737 8.12207C21.5395 8.68544 21.2745 9.26313 21.0788 9.85514C20.883 10.4472 20.7756 11.0153 20.7565 11.5596C20.9475 11.7219 21.148 11.9153 21.3581 12.1396C21.5681 12.364 21.74 12.5813 21.8737 12.7913ZM22.9909 16.1715C23.3442 16.057 23.7118 15.8899 24.0937 15.6702C24.4757 15.4506 24.8314 15.1522 25.1608 14.7751C25.4902 14.3979 25.7719 13.9276 26.0059 13.3643C26.2398 12.8009 26.3806 12.1229 26.4284 11.3304C25.5308 11.4641 24.7431 11.7625 24.0651 12.2256C23.3872 12.6887 22.8668 13.2783 22.5039 13.9945C22.6185 14.3 22.7164 14.6342 22.7975 14.9971C22.8787 15.3599 22.9431 15.7514 22.9909 16.1715Z" fill="#F26430"/>
</g>
</svg>
