<svg width="16" height="16" viewBox="0 0 16 16" fill="none" xmlns="http://www.w3.org/2000/svg">
<path d="M7.9987 14.6663C4.3168 14.6663 1.33203 11.6815 1.33203 7.99967C1.33203 4.31777 4.3168 1.33301 7.9987 1.33301C11.6806 1.33301 14.6654 4.31777 14.6654 7.99967C14.6654 11.6815 11.6806 14.6663 7.9987 14.6663ZM7.9987 13.333C10.9442 13.333 13.332 10.9452 13.332 7.99967C13.332 5.05415 10.9442 2.66634 7.9987 2.66634C5.05318 2.66634 2.66536 5.05415 2.66536 7.99967C2.66536 10.9452 5.05318 13.333 7.9987 13.333ZM8.66536 7.99967H11.332V9.33301H7.33203V4.66634H8.66536V7.99967Z" fill="#042362"/>
</svg>
